<svg width="15" height="27" viewBox="0 0 15 27" fill="none" xmlns="http://www.w3.org/2000/svg">
<path d="M6.96682 26.7695C7.109 26.9232 7.28673 27 7.5 27C7.71327 27 7.891 26.9232 8.03318 26.7695L14.7867 20.2829C14.9289 20.1512 15 19.9866 15 19.789V7.21098C15 7.01341 14.9289 6.84878 14.7867 6.71707L8.03318 0.230488C7.891 0.0768293 7.71327 0 7.5 0C7.28673 0 7.109 0.0768293 6.96682 0.230488L0.21327 6.71707C0.07109 6.84878 0 7.01341 0 7.21098V19.789C0 19.9866 0.07109 20.1512 0.21327 20.2829L6.96682 26.7695ZM7.67772 6.84878L10.0592 10.1085C10.1066 10.1744 10.1303 10.2512 10.1303 10.339V16.661C10.1303 16.7488 10.1066 16.8256 10.0592 16.8915L7.67772 20.1512C7.63033 20.239 7.57109 20.2829 7.5 20.2829C7.42891 20.2829 7.36967 20.239 7.32228 20.1512L4.94076 16.8915C4.89336 16.8256 4.86967 16.7488 4.86967 16.661V10.339C4.86967 10.2512 4.89336 10.1744 4.94076 10.1085L7.32228 6.84878C7.36967 6.76098 7.42891 6.71707 7.5 6.71707C7.57109 6.71707 7.63033 6.76098 7.67772 6.84878ZM1.77725 7.30976L7.07346 1.74512C7.14455 1.67927 7.23341 1.6628 7.34005 1.69573C7.44668 1.72866 7.5 1.8 7.5 1.90976V3.58902C7.5 3.65488 7.48815 3.70976 7.46446 3.75366L3.41232 8.42927C3.36493 8.47317 3.31161 8.50061 3.25237 8.51159C3.19313 8.52256 3.13981 8.5061 3.09242 8.4622L1.8128 7.63902C1.7654 7.61707 1.73578 7.57317 1.72393 7.50732C1.71209 7.44146 1.72986 7.37561 1.77725 7.30976ZM1.35071 8.98902C1.35071 8.90122 1.38626 8.84085 1.45735 8.80793C1.52844 8.775 1.61137 8.78049 1.70616 8.82439L3.02133 9.64756C3.09242 9.69146 3.12796 9.75732 3.12796 9.84512V17.1878C3.12796 17.2537 3.10427 17.3085 3.05687 17.3524L1.70616 18.439C1.63507 18.5049 1.55806 18.5159 1.47512 18.472C1.39218 18.428 1.35071 18.3622 1.35071 18.2744V8.98902Z" fill="url(#paint0_linear_21_3)"/>
<defs>
<linearGradient id="paint0_linear_21_3" x1="2.10928" y1="9.40965" x2="11.8447" y2="22.2385" gradientUnits="userSpaceOnUse">
<stop stop-color="#E8F7F8"/>
<stop offset="0.645" stop-color="#BEE1E9"/>
<stop offset="1" stop-color="#96CCDA"/>
</linearGradient>
</defs>
</svg>
