<svg width="30" height="30" viewBox="0 0 260 260" fill="none" xmlns="http://www.w3.org/2000/svg">
<g clip-path="url(#clip0_7_2)">
<path d="M23.7376 134.638C32.3309 149.205 48.1762 158.985 66.3149 158.985C93.603 158.985 115.724 136.864 115.724 109.576C115.724 82.2876 93.603 60.1662 66.3149 60.1662C64.8823 60.1662 63.4681 60.2409 62.067 60.3603C41.4688 79.4811 27.4936 105.538 23.7376 134.638ZM72.4646 94.8644C80.226 94.8644 86.5188 101.157 86.5188 108.919C86.5188 116.68 80.226 122.973 72.4646 122.973C64.7031 122.973 58.4103 116.68 58.4103 108.919C58.4103 101.157 64.7031 94.8644 72.4646 94.8644Z" fill="#FFCE00"/>
<path d="M235.265 82.9042C226.476 69.2321 211.143 60.1662 193.682 60.1662C166.393 60.1662 144.272 82.2876 144.272 109.576C144.272 136.864 166.393 158.985 193.682 158.985C210.859 158.985 225.983 150.216 234.837 136.915C236.931 127.921 238.04 118.549 238.04 108.919C238.04 99.9907 237.073 91.2911 235.265 82.9042ZM188.412 122.973C180.651 122.973 174.358 116.68 174.358 108.919C174.358 101.157 180.651 94.8644 188.412 94.8644C196.174 94.8644 202.466 101.157 202.466 108.919C202.466 116.68 196.174 122.973 188.412 122.973Z" fill="#FFCE00"/>
<path d="M238.04 108.919C238.04 118.549 236.93 127.921 234.837 136.915C240.049 129.085 243.091 119.687 243.091 109.576C243.091 106.962 242.885 104.396 242.493 101.892C241.258 96.9488 239.71 92.1282 237.862 87.4569C237.075 85.889 236.207 84.3703 235.265 82.9034C237.073 91.2911 238.04 99.9907 238.04 108.919Z" fill="#FFB100"/>
<path d="M23.7376 134.638C27.4936 105.538 41.4688 79.4811 62.067 60.3603C44.5642 61.8518 29.672 72.461 22.1521 87.4244C20.2917 92.122 18.7343 96.9708 17.494 101.944C17.1084 104.432 16.9055 106.98 16.9055 109.577C16.9055 118.726 19.4028 127.289 23.7376 134.638Z" fill="#FFE454"/>
<path d="M130 0C58.3181 0 0 58.3181 0 130C0 201.682 58.3181 260 130 260C201.682 260 260 201.682 260 130C260 58.3181 201.682 0 130 0ZM22.1521 87.4235C29.672 72.461 44.5643 61.8518 62.0671 60.3603C63.4681 60.2409 64.8823 60.1662 66.3149 60.1662C93.603 60.1662 115.724 82.2876 115.724 109.576C115.724 136.864 93.603 158.985 66.3149 158.985C48.1771 158.985 32.3309 149.205 23.7376 134.638C19.4028 127.289 16.9055 118.726 16.9055 109.576C16.9055 106.979 17.1075 104.432 17.494 101.943C18.7343 96.9708 20.2917 92.1212 22.1521 87.4235ZM242.493 101.892C242.884 104.396 243.091 106.962 243.091 109.576C243.091 119.687 240.048 129.085 234.837 136.915C225.983 150.216 210.859 158.985 193.682 158.985C166.393 158.985 144.272 136.864 144.272 109.576C144.272 82.2876 166.393 60.1662 193.682 60.1662C211.143 60.1662 226.476 69.2312 235.265 82.9042C236.207 84.3711 237.075 85.889 237.862 87.4578C239.71 92.1282 241.258 96.9488 242.493 101.892Z" fill="url(#paint0_linear_7_2)"/>
<path d="M37.2204 8.94221L16.9055 65.9422L68.9055 41.9422L37.2204 8.94221Z" fill="url(#paint1_linear_7_2)"/>
<path d="M222.591 8.94221L242.906 65.9422L190.906 41.9422L222.591 8.94221Z" fill="url(#paint2_linear_7_2)"/>
<path d="M72.4646 122.973C80.2265 122.973 86.5188 116.681 86.5188 108.919C86.5188 101.157 80.2265 94.8644 72.4646 94.8644C64.7026 94.8644 58.4103 101.157 58.4103 108.919C58.4103 116.681 64.7026 122.973 72.4646 122.973Z" fill="black"/>
<path d="M188.412 122.973C196.174 122.973 202.466 116.681 202.466 108.919C202.466 101.157 196.174 94.8644 188.412 94.8644C180.65 94.8644 174.358 101.157 174.358 108.919C174.358 116.681 180.65 122.973 188.412 122.973Z" fill="black"/>
<path d="M130 185H100L115 227L130 185Z" fill="white"/>
<path d="M159 185H129L144 227L159 185Z" fill="white"/>
</g>
<defs>
<linearGradient id="paint0_linear_7_2" x1="178.994" y1="260" x2="81.0064" y2="3.61877e-05" gradientUnits="userSpaceOnUse">
<stop stop-color="#140F0F"/>
<stop offset="1" stop-color="#595555"/>
</linearGradient>
<linearGradient id="paint1_linear_7_2" x1="178.994" y1="260" x2="81.0064" y2="3.61877e-05" gradientUnits="userSpaceOnUse">
<stop stop-color="#140F0F"/>
<stop offset="1" stop-color="#595555"/>
</linearGradient>
<linearGradient id="paint2_linear_7_2" x1="178.994" y1="260" x2="81.0064" y2="3.61877e-05" gradientUnits="userSpaceOnUse">
<stop stop-color="#140F0F"/>
<stop offset="1" stop-color="#595555"/>
</linearGradient>
<clipPath id="clip0_7_2">
<rect width="260" height="260" fill="white"/>
</clipPath>
</defs>
</svg>
