<svg width="76" height="41" viewBox="0 0 76 41" fill="none" xmlns="http://www.w3.org/2000/svg">
<path d="M24.9875 25.5284C25.2874 16.0874 20.115 10.6817 17.4914 9.15898C17.1548 9.33624 16.8214 9.52815 16.4913 9.7336C14.4881 13.2281 11.3636 28.1748 12.6189 32C20.115 24.9954 23.988 29.0814 24.9875 32V25.5284Z" fill="url(#paint0_linear_24_51)"/>
<path d="M1 32C10.3701 25.5284 12.6189 32 12.6189 32C11.3636 28.1748 14.4881 13.2281 16.4913 9.7336C8.88132 14.47 3.0356 26.4055 1 32Z" fill="url(#paint1_linear_24_51)"/>
<path d="M17.4914 9.15898C20.115 10.6817 25.2874 16.0874 24.9875 25.5284V32C23.988 29.0814 20.115 24.9954 12.6189 32M17.4914 9.15898C17.2272 8.80811 16.8804 9.0548 16.4913 9.7336M17.4914 9.15898C17.1548 9.33624 16.8214 9.52815 16.4913 9.7336M12.6189 32C12.6189 32 10.3701 25.5284 1 32C3.0356 26.4055 8.88132 14.47 16.4913 9.7336M12.6189 32C11.3636 28.1748 14.4881 13.2281 16.4913 9.7336" stroke="black"/>
<path d="M51.0125 25.5284C50.7126 16.0874 55.885 10.6817 58.5086 9.15898C58.8452 9.33624 59.1786 9.52815 59.5087 9.7336C61.5119 13.2281 64.6364 28.1748 63.3811 32C55.885 24.9954 52.012 29.0814 51.0125 32V25.5284Z" fill="url(#paint2_linear_24_51)"/>
<path d="M75 32C65.6299 25.5284 63.3811 32 63.3811 32C64.6364 28.1748 61.5119 13.2281 59.5087 9.7336C67.1187 14.47 72.9644 26.4055 75 32Z" fill="url(#paint3_linear_24_51)"/>
<path d="M58.5086 9.15898C55.885 10.6817 50.7126 16.0874 51.0125 25.5284V32C52.012 29.0814 55.885 24.9954 63.3811 32M58.5086 9.15898C58.7728 8.80811 59.1196 9.0548 59.5087 9.7336M58.5086 9.15898C58.8452 9.33624 59.1786 9.52815 59.5087 9.7336M63.3811 32C63.3811 32 65.6299 25.5284 75 32C72.9644 26.4055 67.1187 14.47 59.5087 9.7336M63.3811 32C64.6364 28.1748 61.5119 13.2281 59.5087 9.7336" stroke="black"/>
<ellipse cx="38.5" cy="27" rx="14.5" ry="14" fill="url(#paint4_linear_24_51)"/>
<ellipse cx="42" cy="24.5" rx="7" ry="6.5" transform="rotate(180 42 24.5)" fill="url(#paint5_linear_24_51)"/>
<circle cx="45" cy="27" r="2" transform="rotate(180 45 27)" fill="black"/>
<circle cx="45" cy="26" r="1" fill="#D9D9D9"/>
<path d="M32 37C41.375 29.4935 50 34.8553 50 34.8553" stroke="black"/>
<path d="M30.2781 32.5718L31.1897 36.3878L33.8778 34.1321L30.2781 32.5718Z" fill="#D9D9D9"/>
<path d="M49.5725 30.0563L46.2984 32.2181L49.3374 33.9726L49.5725 30.0563Z" fill="#D9D9D9"/>
<path d="M30 16C34.94 12 42.16 12.4 48.24 16L49 3.2L42.92 8.8L40.26 2L36.46 8.8L32.28 2L30 16Z" fill="url(#paint6_linear_24_51)" stroke="black"/>
<defs>
<linearGradient id="paint0_linear_24_51" x1="13" y1="9" x2="13" y2="32" gradientUnits="userSpaceOnUse">
<stop stop-color="#12C221"/>
<stop offset="1" stop-color="#095C10"/>
</linearGradient>
<linearGradient id="paint1_linear_24_51" x1="13" y1="9" x2="13" y2="32" gradientUnits="userSpaceOnUse">
<stop stop-color="#12C221"/>
<stop offset="1" stop-color="#095C10"/>
</linearGradient>
<linearGradient id="paint2_linear_24_51" x1="63" y1="9" x2="63" y2="32" gradientUnits="userSpaceOnUse">
<stop stop-color="#12C221"/>
<stop offset="1" stop-color="#095C10"/>
</linearGradient>
<linearGradient id="paint3_linear_24_51" x1="63" y1="9" x2="63" y2="32" gradientUnits="userSpaceOnUse">
<stop stop-color="#12C221"/>
<stop offset="1" stop-color="#095C10"/>
</linearGradient>
<linearGradient id="paint4_linear_24_51" x1="41.4744" y1="13" x2="38.5532" y2="41.0055" gradientUnits="userSpaceOnUse">
<stop stop-color="#095C10"/>
<stop offset="1" stop-color="#12C221"/>
</linearGradient>
<linearGradient id="paint5_linear_24_51" x1="42" y1="31" x2="42" y2="18" gradientUnits="userSpaceOnUse">
<stop stop-color="#FF0000"/>
<stop offset="1" stop-color="#990000"/>
</linearGradient>
<linearGradient id="paint6_linear_24_51" x1="39.5" y1="2" x2="39.5" y2="16" gradientUnits="userSpaceOnUse">
<stop stop-color="#FFCE00"/>
<stop offset="0.65" stop-color="#D7AE00"/>
<stop offset="1" stop-color="#997C00"/>
</linearGradient>
</defs>
</svg>
